<svg width="33" height="30" viewBox="0 0 33 30" fill="none" xmlns="http://www.w3.org/2000/svg">
<g filter="url(#filter0_d_89_226)">
<path d="M23.3477 13.1797C24.7828 13.1798 26.1611 13.7463 27.1777 14.7568C28.1946 15.7677 28.7665 17.1411 28.7666 18.5732V20.7695C28.7666 21.3218 28.3189 21.7695 27.7666 21.7695C27.2145 21.7694 26.7666 21.3217 26.7666 20.7695V18.5732C26.7665 17.6754 26.4079 16.8125 25.7676 16.1758C25.1269 15.539 24.2562 15.1798 23.3477 15.1797H14.5088C13.6003 15.1798 12.7295 15.5389 12.0889 16.1758C11.4485 16.8125 11.0899 17.6754 11.0898 18.5732V20.7695C11.0898 21.3218 10.6421 21.7695 10.0898 21.7695C9.53771 21.7694 9.08988 21.3217 9.08984 20.7695V18.5732C9.08991 17.1411 9.66187 15.7677 10.6787 14.7568C11.6953 13.7462 13.0736 13.1798 14.5088 13.1797H23.3477ZM7.81836 3.74609C8.15924 3.74616 8.43537 4.02243 8.43555 4.36328V6.8916L11.3311 6.88379C11.6623 6.8828 11.9324 7.15019 11.9336 7.48145C11.9346 7.81276 11.6663 8.08201 11.335 8.08301L8.43555 8.0918V10.9082C8.43548 11.2491 8.15931 11.5253 7.81836 11.5254C7.47736 11.5254 7.20124 11.2492 7.20117 10.9082V8.09473L4.60156 8.10352C4.27036 8.10451 4.00132 7.837 4 7.50586C3.99894 7.17449 4.26629 6.90432 4.59766 6.90332L7.20117 6.89551V4.36328C7.20134 4.02239 7.47743 3.7461 7.81836 3.74609ZM18.9277 0C21.915 0 24.3475 2.40952 24.3477 5.39355C24.3475 8.37753 21.915 10.7861 18.9277 10.7861C15.9408 10.7857 13.509 8.37729 13.5088 5.39355C13.5089 2.40977 15.9408 0.000403842 18.9277 0ZM18.9277 2C17.0342 2.0004 15.5089 3.52544 15.5088 5.39355C15.509 7.26162 17.0343 8.78573 18.9277 8.78613C20.8215 8.78613 22.3475 7.26187 22.3477 5.39355C22.3475 3.52519 20.8216 2 18.9277 2Z" fill="white"/>
</g>
<defs>
<filter id="filter0_d_89_226" x="0" y="0" width="32.7666" height="29.7695" filterUnits="userSpaceOnUse" color-interpolation-filters="sRGB">
<feFlood flood-opacity="0" result="BackgroundImageFix"/>
<feColorMatrix in="SourceAlpha" type="matrix" values="0 0 0 0 0 0 0 0 0 0 0 0 0 0 0 0 0 0 127 0" result="hardAlpha"/>
<feOffset dy="4"/>
<feGaussianBlur stdDeviation="2"/>
<feComposite in2="hardAlpha" operator="out"/>
<feColorMatrix type="matrix" values="0 0 0 0 0 0 0 0 0 0 0 0 0 0 0 0 0 0 0.25 0"/>
<feBlend mode="normal" in2="BackgroundImageFix" result="effect1_dropShadow_89_226"/>
<feBlend mode="normal" in="SourceGraphic" in2="effect1_dropShadow_89_226" result="shape"/>
</filter>
</defs>
</svg>
